<svg height="383" viewBox="0 0 1333 383" width="1333" xmlns="http://www.w3.org/2000/svg"><g fill="none" fill-rule="evenodd"><path d="m334.01 82.284-221.11-80.62c-5.71-2.0825-11.94.8923-13.92 6.6407l-98.275 285.41c-1.9801 5.76 1.2284 11.44 7.1644 12.71 0 0 121.76 25.92 173.76 38.91 37.74 9.42 121.37 30.42 137.37 34.42 8.04 2.01 12.55 2.51 15.04 2.5 2.5 0 7-.51 14.96-2.5 16-4 99.64-25 137.37-34.42 52.01-12.99 173.77-38.91 173.77-38.91 5.93-1.27 9.17-6.96 7.23-12.73l-96.52-286.01c-1.94-5.7649-8.15-8.7473-13.85-6.6682l-222.99 81.272zm-217.38-58.274c-9.97 4.749-90.858 251.37-86.471 260.72s277.97 76.21 287.89 69.55c9.91-6.66 6.61-241.99 0-250.74-6.62-8.741-191.45-84.28-201.42-79.53z" fill="#2196f3"/><g fill="#fff"><g transform="translate(29)"><path d="m87.633 24.01c-9.971 4.749-90.861 251.37-86.474 260.72 4.3868 9.35 277.97 76.21 287.89 69.55 9.91-6.66 6.61-241.99 0-250.74-6.62-8.741-191.44-84.28-201.42-79.53h.003z"/><path d="m305.01 82.284 222.99-81.272c5.7-2.0793 11.91.9031 13.85 6.6636l61.99 183.69-298.83-109.09v.004z" fill-opacity=".7603" opacity=".14669"/></g><path d="m755 255.09c10.65 5.76 27.07 9.79 45.5 9.79 40.32 0 61.05-19.3 61.05-45.5-.29-20.74-11.52-34.28-38.3-43.49-17.28-6.05-22.75-9.51-22.75-16.13 0-7.2 6.05-11.52 16.7-11.52 12.1 0 24.19 4.61 30.53 8.06l7.77-30.24c-8.64-4.32-23.32-8.06-39.74-8.06-34.84 0-57.3 19.87-57.3 46.08-.29 16.7 10.94 32.54 40.02 42.34 16.42 5.47 20.74 8.92 20.74 16.12s-5.47 11.81-18.72 11.81c-12.96 0-29.66-5.76-37.72-10.65zm133.15 9.91h42.62v-82.08c0-3.46.29-7.49 1.73-10.94 2.59-7.2 9.21-15.84 20.45-15.84 13.82 0 20.15 12.09 20.15 29.95v78.91h42.6v-82.37c0-3.45.6-8.06 1.8-11.23 2.8-8.35 10-15.26 20.1-15.26 14.1 0 20.7 11.8 20.7 32.25v76.61h42.7v-82.94c0-42.05-20.5-61.06-47.6-61.06-10.3 0-19 2.3-26.7 6.91-6.7 4.03-13 9.79-18.2 16.99h-.6c-6-14.68-20.4-23.9-38.54-23.9-24.19 0-36.57 13.25-42.62 22.18h-.86l-2.02-19.01h-36.86c.58 12.38 1.15 27.36 1.15 44.93zm248.05 0h43.7v-71.42c0-3.46.3-6.92.9-9.8 2.9-13.53 13.8-22.17 29.9-22.17 4.9 0 8.7.57 11.8 1.15v-41.18c-3.1-.58-5.1-.58-9.2-.58-13.5 0-30.8 8.64-38 29.09h-1.1l-1.5-25.92h-37.7c.6 12.09 1.2 25.63 1.2 46.37zm121.5-174.21v30.528h-18.7v32.26h18.7v57.6c0 19.87 4 33.4 12.1 41.76 6.9 7.2 18.7 12.09 32.8 12.09 12.4 0 22.8-1.44 28.6-3.74l-.3-33.12c-3.2.57-7.5 1.15-13 1.15-13.2 0-17.3-7.78-17.3-24.77v-50.97h31.4v-32.26h-31.4v-40.32z"/></g></g></svg>